/* XPM */
static char *_524583619288[] = {
/* columns rows colors chars-per-pixel */
"16 16 49 1 ",
"  c #1666AE",
". c #1C69B0",
"X c #216BB1",
"o c #276EB3",
"O c #2B6FB4",
"+ c #2570B3",
"@ c #2D70B5",
"# c #2E71B5",
"$ c #3273B6",
"% c #3875B8",
"& c #3A76B8",
"* c #3B7ABA",
"= c #3D78B9",
"- c #437BBB",
"; c #417CBB",
": c #467CBC",
"> c #497DBD",
", c #4283BD",
"< c #4E80BE",
"1 c #4D88C0",
"2 c #5A85C2",
"3 c #538AC2",
"4 c #508CC2",
"5 c #588DC4",
"6 c #5C91C6",
"7 c #608EC5",
"8 c #6194C7",
"9 c #6797C9",
"0 c #6C99CA",
"q c #729CCC",
"w c #789ECE",
"e c #84AAD3",
"r c #8BB3D7",
"t c #90B5D8",
"y c #96B8DA",
"u c #99BCDC",
"i c #9FBFDD",
"p c #A1BDDD",
"a c #A7BFDF",
"s c #A8C6E1",
"d c #B6CFE6",
"f c #C5D9EB",
"g c #CADBEC",
"h c #D0DEEE",
"j c #E2ECF5",
"k c #F0F5FA",
"l c #F6F8FC",
"z c gray100",
"x c None",
/* pixels */
"xxxxx =.   xxxxx",
"xxxO-o%$$%$X xxx",
"xx##= %#oo$ %%xx",
"x=>-% %   XX$-Ox",
"x-X#w483 79898*x",
"##plzzzg#yzzzzq2",
"O6zd844,fjrtsz4.",
" pz+uffuff  4z4 ",
"%iz+uhkggf%-qz0X",
" 5zd49fggjayszq ",
"@<elzzfffzzzzz0 ",
"x;-*<45,319096;x",
"x$##%#X $. =#$$x",
"xxo#>%$>=>o%#.xx",
"xxx$o#$     :xxx",
"xxxxx.     xxxxx"
};
