/* XPM */
static char *_524583635977[] = {
/* columns rows colors chars-per-pixel */
"64 64 183 2 ",
"   c #005E20",
".  c #015F21",
"X  c #025F22",
"o  c #036023",
"O  c #046123",
"+  c #066225",
"@  c #076226",
"#  c #086327",
"$  c #096428",
"%  c #0A6429",
"&  c #0B652A",
"*  c #0F672D",
"=  c #11692F",
"-  c #126930",
";  c #136A31",
":  c #146B31",
">  c #156B32",
",  c #176D34",
"<  c #186D35",
"1  c #196E36",
"2  c #1A6E37",
"3  c #1B6F38",
"4  c #1C7038",
"5  c #1D7039",
"6  c #1E713A",
"7  c #1F723B",
"8  c #20723C",
"9  c #23743F",
"0  c #24753F",
"q  c #297844",
"w  c #2A7945",
"e  c #2D7A47",
"r  c #2E7B48",
"t  c #2F7C49",
"y  c #307C4A",
"u  c #317D4B",
"i  c #337E4D",
"p  c #357F4E",
"a  c #36804F",
"s  c #378150",
"d  c #3A8353",
"f  c #3B8354",
"g  c #3C8454",
"h  c #3F8657",
"j  c #408658",
"k  c #418759",
"l  c #42885A",
"z  c #43885B",
"x  c #44895B",
"c  c #458A5C",
"v  c #468A5D",
"b  c #478B5E",
"n  c #488B5F",
"m  c #498C60",
"M  c #4A8D61",
"N  c #4D8F63",
"B  c #4E8F64",
"V  c #4F9065",
"C  c #509166",
"Z  c #519167",
"A  c #529268",
"S  c #539269",
"D  c #55946A",
"F  c #56946B",
"G  c #57956C",
"H  c #58966D",
"J  c #59966E",
"K  c #5A976F",
"L  c #5B9770",
"P  c #5D9971",
"I  c #5E9972",
"U  c #5F9A73",
"Y  c #609B74",
"T  c #629C76",
"R  c #639D77",
"E  c #659E78",
"W  c #669E79",
"Q  c #679F7A",
"!  c #68A07B",
"~  c #69A07C",
"^  c #6AA17D",
"/  c #6BA27E",
"(  c #6CA27E",
")  c #71A583",
"_  c #72A684",
"`  c #75A886",
"'  c #76A987",
"]  c #77A988",
"[  c #78AA89",
"{  c #7BAC8C",
"}  c #7CAC8C",
"|  c #7DAD8D",
" . c #81AF91",
".. c #87B396",
"X. c #88B497",
"o. c #8AB599",
"O. c #8BB69A",
"+. c #8DB79B",
"@. c #8FB89D",
"#. c #91BA9F",
"$. c #92BAA0",
"%. c #95BCA2",
"&. c #98BEA5",
"*. c #99BFA6",
"=. c #9ABFA7",
"-. c #9CC0A8",
";. c #9FC2AB",
":. c #A0C3AC",
">. c #A1C4AD",
",. c #A2C4AE",
"<. c #A4C6AF",
"1. c #A5C6B0",
"2. c #A6C7B1",
"3. c #A8C8B3",
"4. c #ABCAB6",
"5. c #ACCBB6",
"6. c #AECCB8",
"7. c #AFCDB9",
"8. c #B0CDBA",
"9. c #B1CEBB",
"0. c #B4D0BD",
"q. c #B5D0BE",
"w. c #B6D1BF",
"e. c #B7D2C0",
"r. c #B8D2C1",
"t. c #B9D3C2",
"y. c #BBD4C4",
"u. c #BCD5C4",
"i. c #BDD5C5",
"p. c #BED6C6",
"a. c #BFD7C7",
"s. c #C0D7C8",
"d. c #C1D8C9",
"f. c #C2D8CA",
"g. c #C3D9CB",
"h. c #C4DACB",
"j. c #C5DACC",
"k. c #C6DBCD",
"l. c #C9DDD0",
"z. c #CADED1",
"x. c #CCDFD2",
"c. c #CDDFD3",
"v. c #CEE0D4",
"b. c #D0E1D6",
"n. c #D1E2D7",
"m. c #D2E3D8",
"M. c #D3E3D9",
"N. c #D5E4DA",
"B. c #D6E5DB",
"V. c #D9E7DE",
"C. c #DAE8DF",
"Z. c #DBE8E0",
"A. c #DDEAE1",
"S. c #DEEAE2",
"D. c #DFEBE3",
"F. c #E0EBE4",
"G. c #E1ECE5",
"H. c #E2EDE6",
"J. c #E3EDE7",
"K. c #E4EEE7",
"L. c #E6EFE9",
"P. c #E9F1EC",
"I. c #EAF2ED",
"U. c #EBF2EE",
"Y. c #ECF3EE",
"T. c #EDF4EF",
"R. c #EEF4F0",
"E. c #EFF5F1",
"W. c #F0F6F2",
"Q. c #F1F6F3",
"!. c #F3F7F5",
"~. c #F4F8F5",
"^. c #F5F9F6",
"/. c #F6F9F7",
"(. c #F7FAF8",
"). c #F8FBF9",
"_. c #FAFCFB",
"`. c #FBFCFC",
"'. c #FCFDFC",
"]. c #FDFEFD",
"[. c #FEFEFE",
"{. c white",
"}. c None",
/* pixels */
"}.}.}.}.}.}.}.}.}.}.}.}.}.}.}.}.}.}.}.}.}.}.}.}.}.}.                      }.}.}.}.}.}.}.}.}.}.}.}.}.}.}.}.}.}.}.}.}.}.}.}.}.}.}.",
"}.}.}.}.}.}.}.}.}.}.}.}.}.}.}.}.}.}.}.}.}.}.                                      }.}.}.}.}.}.}.}.}.}.}.}.}.}.}.}.}.}.}.}.}.}.}.",
"}.}.}.}.}.}.}.}.}.}.}.}.}.}.}.}.}.}.}.                                                  }.}.}.}.}.}.}.}.}.}.}.}.}.}.}.}.}.}.}.}.",
"}.}.}.}.}.}.}.}.}.}.}.}.}.}.}.}.}.                                                          }.}.}.}.}.}.}.}.}.}.}.}.}.}.}.}.}.}.",
"}.}.}.}.}.}.}.}.}.}.}.}.}.}.}.                                                                  }.}.}.}.}.}.}.}.}.}.}.}.}.}.}.}.",
"}.}.}.}.}.}.}.}.}.}.}.}.}.}.                                                                      }.}.}.}.}.}.}.}.}.}.}.}.}.}.}.",
"}.}.}.}.}.}.}.}.}.}.}.}.                                                                              }.}.}.}.}.}.}.}.}.}.}.}.}.",
"}.}.}.}.}.}.}.}.}.}.}.                                                                                  }.}.}.}.}.}.}.}.}.}.}.}.",
"}.}.}.}.}.}.}.}.}.}.                                                                                      }.}.}.}.}.}.}.}.}.}.}.",
"}.}.}.}.}.}.}.}.}.                                          > V } $.} V *                                   }.}.}.}.}.}.}.}.}.}.",
"}.}.}.}.}.}.}.}.                                        < ' d._.{.{.{.`.p.V                                   }.}.}.}.}.}.}.}.}.",
"}.}.}.}.}.}.}.                                      i 4.{.{.{.{.{.{.{.{.{.{.l.3                                 }.}.}.}.}.}.}.}.",
"}.}.}.}.}.}.                                    z h.{.{.{.{.{.{.{.{.{.{.{.{.{.~.t                                 }.}.}.}.}.}.}.",
"}.}.}.}.}.}.                                K N.{.{.{.{.{.{.{.{.{.{.{.{.{.{.{.{.P.5                               }.}.}.}.}.}.}.",
"}.}.}.}.}.                            # ) L.{.{.{.{.{.{.{.{.{.{.{.{.{.{.{.{.{.{.{.e.                                }.}.}.}.}.}.",
"}.}.}.}.                            I {.{.{.{.{.{.{.{.{.{.{.{.{.{.{.{.{.{.{.{.{.{.{.m                                 }.}.}.}.}.",
"}.}.}.}.                      z C   A {.{.{.{.{.{.{.{.{.{.{.{.N.k.E.{.{.{.{.{.{.{.{.5.                                }.}.}.}.}.",
"}.}.}.                    r 8.{.J.    e.{.{.{.{.{.{.{.{.w.K <     O %.{.{.{.{.{.{.{.~.>                                 }.}.}.}.",
"}.}.}.                  X.{.{.{.{.T   n {.{.{.{.{.~.O.4               =.{.{.{.{.{.{.{.x                                 }.}.}.}.",
"}.}.                  [ {.{.{.{.{.v.    s.{.{.P.' &                   , E.{.{.{.{.{.{.I                                   }.}.}.",
"}.}.                F !.{.{.{.{.{.{.A   ! _.T                           =.{.{.{.{.{.{.K                                   }.}.}.",
"}.}.                _ {.{.{.{.{.{.{.s.    &             5 +.:.          W {.{.{.{.{.{.p                                   }.}.}.",
"}.                  0 k.{.{.{.{.{.{.{.c             e ,._.{.{.w         W {.{.{.{.{.A.                                      }.}.",
"}.                    [ {.{.{.{.{.{.{.w.        z 9.{.{.{.{.{.,.        &.{.{.{.{.{...                                      }.}.",
"}.                    < !.{.{.{.{.{.{.{.g   F l.{.{.{.{.{.{.P.}       9 ~.{.{.{.{.V.                                        }.}.",
"}.                      $.{.{.{.{.{.{.{.c.V.{.{.{.{.{.{.A./ &       - N.{.{.{.{.{.I O w &                                   }.}.",
"                        w {.{.{.{.{.{.{.{.{.{.{.{.{.c.F o         D W.{.{.{.{.{.(.J.{.{.T.d.) &                               }.",
"                          1.{.{.{.{.{.{.{.{.{.{.e.z           m c.{.{.{.{.{.{.{.{.{.{.{.{.{.{.~.A                             }.",
"                          f {.{.{.{.{.{.{.{.6.t           Y C.{.{.{.{.{.{.{.{.{.{.{.{.{.{.{.{.{.{.}                           }.",
"                            w.{.{.{.{.{.{.{...      & ' P.{.{.{.{.{.{.{.{.{.{.{.{.{.{.{.{.{.{.{.{.{.T                         }.",
"                            n {.{.{.{.{.{.{.T.=   T {.{.{.{.{.{.{.{.{.{.{.{.{.{.{.{.{.{.{.{.{.{.{.{.W.5                       }.",
"                              d.{.{.{.{.{.{.{.[   B {.{.{.{.{.{.{.{.{.{.A.@.F a s ! J.{.{.{.{.{.{.{.{.-.                      }.",
"                              K {.{.{.{.{.{.{.J.    8.{.{.{.{.{.{.{.k.c               p.{.{.{.{.{.{.{.(.<                     }.",
"                                b.{.{.{.{.{.{.{.W   c {.{.{.{.{.8.u                   > K.{.{.{.{.{.{.{./                     }.",
"                                W {.{.{.{.{.{.{.b.    p.{.).=.9                         / {.{.{.{.{.{.{.<.                    }.",
"                                @ J.{.{.{.{.{.{.{.K   K 3.>                             - !.{.{.{.{.{.{.b.                    }.",
"                                  { {.{.{.{.{.{.{.d.                  5 +.1.              d.{.{.{.{.{.{.A.                    }.",
"}.                                > E.{.{.{.{.{.{.{.m             e ,._.{.{.r             e.{.{.{.{.{.{.A.                  }.}.",
"}.                                  O.{.{.{.{.{.{.{.t.        j w.{.{.{.{.{.1.          @ K.{.{.{.{.{.{.l.                  }.}.",
"}.                                  9 '.{.{.{.{.{.{.{.j   F l.{.{.{.{.{.{.Y.}           / {.{.{.{.{.{.{.-.                  }.}.",
"}.                                    -.{.{.{.{.{.{.{.v.C.{.{.{.{.{.{.A.( $           e ).{.{.{.{.{.{.{.A                   }.}.",
"}.}.                                  a {.{.{.{.{.{.{.{.{.{.{.{.{.l.K o             n ~.{.{.{.{.{.{.{.m.                  }.}.}.",
"}.}.                                    8.{.{.{.{.{.{.{.{.{.{.t.x               < 3.{.{.{.{.{.{.{.{.{.V                   }.}.}.",
"}.}.                                    x {.{.{.{.{.{.{.{.6.u               q <.{.{.{.{.{.{.{.{.{.{.O.                    }.}.}.",
"}.}.}.                                    p.{.{.{.{.{.{.{.X.            d u.{.{.{.{.{.{.{.{.{.{.{.@.                    }.}.}.}.",
"}.}.}.                                    C {.{.{.{.{.{.{.Y.=       B c.{.{.{.{.{.{.{.{.{.{.{.{.T                       }.}.}.}.",
"}.}.}.}.                                    c.{.{.{.{.{.{.{.'   = A.{.{.{.{.{.{.{.{.{.{.{.{.t.<                       }.}.}.}.}.",
"}.}.}.}.                                    Y {.{.{.{.{.{.{.J.    s.{.{.{.{.{.{.{.{.{.{.c.g                           }.}.}.}.}.",
"}.}.}.}.}.                                  @ J.{.{.{.{.{.{.{./   x {.{.{.{.{.{.{.{.k.g                             }.}.}.}.}.}.",
"}.}.}.}.}.}.                                  [ {.{.{.{.{.{.{.N.    y.{.{.{.{.{.5.i                               }.}.}.}.}.}.}.",
"}.}.}.}.}.}.                                  - Y.{.{.{.{.{.{.{.K   B {.{.`.=.7                                   }.}.}.}.}.}.}.",
"}.}.}.}.}.}.}.                                  ..{.{.{.{.{.{.{.l.    h.:.*                                     }.}.}.}.}.}.}.}.",
"}.}.}.}.}.}.}.}.                                > P.{.{.{.{.{.{.{.m   @                                       }.}.}.}.}.}.}.}.}.",
"}.}.}.}.}.}.}.}.}.                                V {.{.{.{.{.N.I &                                         }.}.}.}.}.}.}.}.}.}.",
"}.}.}.}.}.}.}.}.}.}.                                z h.C.5.c                                             }.}.}.}.}.}.}.}.}.}.}.",
"}.}.}.}.}.}.}.}.}.}.}.                                                                                  }.}.}.}.}.}.}.}.}.}.}.}.",
"}.}.}.}.}.}.}.}.}.}.}.}.                                                                              }.}.}.}.}.}.}.}.}.}.}.}.}.",
"}.}.}.}.}.}.}.}.}.}.}.}.}.}.                                                                      }.}.}.}.}.}.}.}.}.}.}.}.}.}.}.",
"}.}.}.}.}.}.}.}.}.}.}.}.}.}.}.                                                                  }.}.}.}.}.}.}.}.}.}.}.}.}.}.}.}.",
"}.}.}.}.}.}.}.}.}.}.}.}.}.}.}.}.}.                                                          }.}.}.}.}.}.}.}.}.}.}.}.}.}.}.}.}.}.",
"}.}.}.}.}.}.}.}.}.}.}.}.}.}.}.}.}.}.}.                                                  }.}.}.}.}.}.}.}.}.}.}.}.}.}.}.}.}.}.}.}.",
"}.}.}.}.}.}.}.}.}.}.}.}.}.}.}.}.}.}.}.}.}.}.                                      }.}.}.}.}.}.}.}.}.}.}.}.}.}.}.}.}.}.}.}.}.}.}.",
"}.}.}.}.}.}.}.}.}.}.}.}.}.}.}.}.}.}.}.}.}.}.}.}.}.}.                      }.}.}.}.}.}.}.}.}.}.}.}.}.}.}.}.}.}.}.}.}.}.}.}.}.}.}.",
"}.}.}.}.}.}.}.}.}.}.}.}.}.}.}.}.}.}.}.}.}.}.}.}.}.}.}.}.}.}.}.}.}.}.}.}.}.}.}.}.}.}.}.}.}.}.}.}.}.}.}.}.}.}.}.}.}.}.}.}.}.}.}.}."
};
