/* XPM */
static char *_524583572394[] = {
/* columns rows colors chars-per-pixel */
"32 32 123 2 ",
"   c #005E20",
".  c #015F21",
"X  c #025F22",
"o  c #056124",
"O  c #066225",
"+  c #086327",
"@  c #096428",
"#  c #0A6429",
"$  c #0B652A",
"%  c #0C662A",
"&  c #0F672D",
"*  c #10682E",
"=  c #126930",
"-  c #196E36",
";  c #1B6F38",
":  c #1C7038",
">  c #1E713A",
",  c #20723C",
"<  c #22733E",
"1  c #267641",
"2  c #277742",
"3  c #2D7A47",
"4  c #2F7C49",
"5  c #327E4C",
"6  c #337E4D",
"7  c #347F4D",
"8  c #36804F",
"9  c #378150",
"0  c #398252",
"q  c #3C8454",
"w  c #3D8555",
"e  c #3E8556",
"r  c #3F8657",
"t  c #408658",
"y  c #43885B",
"u  c #458A5C",
"i  c #478B5E",
"p  c #498C60",
"a  c #4A8D61",
"s  c #4B8D62",
"d  c #4C8E62",
"f  c #4D8F63",
"g  c #4F9065",
"h  c #509166",
"j  c #549369",
"k  c #619B75",
"l  c #629C76",
"z  c #679F7A",
"x  c #6AA17D",
"c  c #6BA27E",
"v  c #6CA27E",
"b  c #70A582",
"n  c #71A583",
"m  c #72A684",
"M  c #75A886",
"N  c #76A987",
"B  c #7AAB8B",
"V  c #7CAC8C",
"C  c #83B193",
"Z  c #85B294",
"A  c #86B395",
"S  c #87B396",
"D  c #8CB69A",
"F  c #8DB79B",
"G  c #91BA9F",
"H  c #92BAA0",
"J  c #93BBA1",
"K  c #96BDA3",
"L  c #98BEA5",
"P  c #99BFA6",
"I  c #9ABFA7",
"U  c #9CC0A8",
"Y  c #9DC1A9",
"T  c #9EC2AA",
"R  c #A0C3AC",
"E  c #A2C4AE",
"W  c #A4C6AF",
"Q  c #A5C6B0",
"!  c #A8C8B3",
"~  c #ACCBB6",
"^  c #ADCBB7",
"/  c #AECCB8",
"(  c #AFCCB9",
")  c #B2CEBC",
"_  c #B3CFBD",
"`  c #B4D0BD",
"'  c #B6D1BF",
"]  c #B7D2C0",
"[  c #BAD3C3",
"{  c #BBD4C4",
"}  c #BCD5C4",
"|  c #BDD5C5",
" . c #BFD7C7",
".. c #C0D7C8",
"X. c #C1D8C9",
"o. c #C4DACB",
"O. c #C6DBCD",
"+. c #CCDFD2",
"@. c #CFE1D5",
"#. c #D2E3D8",
"$. c #D4E4D9",
"%. c #D6E5DB",
"&. c #D9E7DE",
"*. c #DDEAE1",
"=. c #E3EDE7",
"-. c #E5EFE8",
";. c #E5EFE9",
":. c #E7F0EA",
">. c #E8F0EB",
",. c #EAF2ED",
"<. c #EDF4EF",
"1. c #F3F7F5",
"2. c #F4F8F5",
"3. c #F5F9F6",
"4. c #F7FAF8",
"5. c #F8FBF9",
"6. c #F9FBFA",
"7. c #FAFCFB",
"8. c #FBFCFC",
"9. c #FCFDFC",
"0. c #FDFEFD",
"q. c white",
"w. c None",
/* pixels */
"w.w.w.w.w.w.w.w.w.w.w.w.                w.w.w.w.w.w.w.w.w.w.w.w.",
"w.w.w.w.w.w.w.w.w.                            w.w.w.w.w.w.w.w.w.",
"w.w.w.w.w.w.w.                                    w.w.w.w.w.w.w.",
"w.w.w.w.w.w.                                        w.w.w.w.w.w.",
"w.w.w.w.w.                    j D N -                 w.w.w.w.w.",
"w.w.w.w.                  t Y 2.q.q. .r                 w.w.w.w.",
"w.w.w.                h { q.q.q.q.q.q.q.s                 w.w.w.",
"w.w.              z +.q.q.q.q.q.q.q.q.q.4.*                 w.w.",
"w.w.        O J 6 Z q.q.q.q. .m v >.q.q.q.N                 w.w.",
"w.        2 &.q...  q.q.Y 6       3 6.q.q._                   w.",
"w.        [ q.q.q.7 i 8   , Y b     _ q.q.^                   w.",
"w.        x q.q.q.o.  : L 6.q.%.    _ q.q.i                   w.",
"            -.q.q.q.Q 6.q.6.L :   s q.q.O.@ @                   ",
"            m q.q.q.q.6.Y ,   ; D q.q.q.:.<.,.U =               ",
"            @ 1.q.q.q.i   4 K 4.q.q.q.q.q.q.q.q.*.=             ",
"              C q.q.q.Z * q.q.q.q.q.%.G R q.q.q.q.^ @           ",
"              * 6.q.q.2.O _ q.q._ i       r 6.q.q.q.l           ",
"                K q.q.q.x , ~ q             K q.q.q.W           ",
"                , q.q.q.4.+     2 Q v       i q.q.q.'           ",
"                  / q.q.q.B , Y 6.q.#.      G q.q.q.E           ",
"w.                6 q.q.q.6.6.q.6.J -     k q.q.q.q.s         w.",
"w.                  ..q.q.q.q.L :     q ^ q.q.q.q.b           w.",
"w.                  r q.q.q.-.  % s [ q.q.q.q.q.V             w.",
"w.w.                  @.q.q.q.3 i q.q.q.q.q.[ r             w.w.",
"w.w.                  j q.q.q. .  2.q.q._ i                 w.w.",
"w.w.w.                  =.q.q.q.i z ' 9                   w.w.w.",
"w.w.w.w.                g q.q.4.v                       w.w.w.w.",
"w.w.w.w.w.                Z ( g *                     w.w.w.w.w.",
"w.w.w.w.w.w.                                        w.w.w.w.w.w.",
"w.w.w.w.w.w.w.                                    w.w.w.w.w.w.w.",
"w.w.w.w.w.w.w.w.w.                            w.w.w.w.w.w.w.w.w.",
"w.w.w.w.w.w.w.w.w.w.w.w.                w.w.w.w.w.w.w.w.w.w.w.w."
};
